<svg height="2000" viewBox="0 0 2000 2000" width="2000" xmlns="http://www.w3.org/2000/svg"><circle cx="1000" cy="1000" fill="#1a53f0" r="1000"/><path d="m803.2 1135.44c-127.71 0-231.24 103.83-231.24 231.91s103.54 231.91 231.25 231.91 231.25-103.83 231.25-231.91-103.53-231.91-231.25-231.91zm0 393.67c-89 0-161.21-72.38-161.21-161.68s72.18-161.68 161.21-161.68 161.22 72.38 161.22 161.68c-.15 89.22-72.24 161.57-161.22 161.68zm493.86-888.36c-127.71 0-231.25 103.83-231.25 231.91s103.54 231.91 231.25 231.91 231.25-103.83 231.25-231.91-103.52-231.92-231.24-231.92zm0 393.67c-89 0-161.21-72.38-161.21-161.68s72.15-161.68 161.22-161.68 161.22 72.38 161.22 161.68c-.15 89.26-72.29 161.52-161.22 161.67zm-493.86-393.68c-110.09-.07-205 77.69-226.88 185.9s35.31 216.89 136.68 259.86a231.86 231.86 0 0 0 255.82-375.61h65.57v-70.15zm161.23 231.91c0 89.29-72.18 161.68-161.22 161.68s-161.21-72.39-161.21-161.68 72.17-161.65 161.2-161.65 161.15 72.41 161.31 161.68h-.08z" fill="#fff"/></svg>